<svg viewBox="0 0 640 324" role="img" aria-label="Aufbau einer Lichtuhr mit zwei Spiegeln, Lichtquelle am unteren Spiegel und Zähler für vollständige Hin- und Rückwege" xmlns="http://www.w3.org/2000/svg" font-family="Source Sans Pro, sans-serif"><defs><filter id="glow" x="-60%" y="-60%" width="220%" height="220%"><feGaussianBlur stdDeviation="4" result="blur"></feGaussianBlur><feMerge><feMergeNode in="blur"></feMergeNode><feMergeNode in="SourceGraphic"></feMergeNode></feMerge></filter></defs><g><line x1="272" y1="52" x2="272" y2="202" stroke="#0b8793" stroke-width="3" opacity="0.4"></line><g data-lc-clock="" data-lc-x="272"><rect x="223" y="43" width="98" height="9" rx="3" fill="#243447"></rect><rect x="223" y="202" width="98" height="9" rx="3" fill="#243447"></rect><line x1="272" y1="211" x2="272" y2="220" stroke="#243447" stroke-width="2"></line><rect x="234" y="220" width="76" height="43" rx="8" fill="#f3f6f8" stroke="#cbd5df" stroke-width="2"></rect><text x="272" y="251" class="label" text-anchor="middle" data-lc-count="1" style="fill: #243447; font-size: 30px; font-weight: 600">01</text><rect x="265" y="204" width="14" height="7" rx="2" fill="#0b8793"></rect></g><line x1="177" y1="52" x2="177" y2="202" stroke="#607286" stroke-width="2"></line><line x1="171" y1="52" x2="183" y2="52" stroke="#607286" stroke-width="2"></line><line x1="171" y1="202" x2="183" y2="202" stroke="#607286" stroke-width="2"></line><text x="162" y="136" class="label" text-anchor="end" style="fill: #243447; font-size: 27px; font-weight: 500"><tspan font-style="italic">D</tspan></text><circle cx="272" cy="144.30769230769232" r="11" fill="#f2ad25" opacity="0.2"></circle><circle cx="272" cy="144.30769230769232" r="6.5" fill="#f2ad25" stroke="#885b0b" stroke-width="1" data-lc-pulse=""></circle><text x="382" y="60" class="label" style="fill: #243447; font-size: 23px; font-weight: 500">Spiegel</text><line x1="330" y1="49" x2="365" y2="49" stroke="#cbd5df" stroke-width="2"></line><text x="382" y="210" class="label" style="fill: #243447; font-size: 23px; font-weight: 500">Spiegel</text><line x1="330" y1="206" x2="365" y2="206" stroke="#cbd5df" stroke-width="2"></line><text x="382" y="252" class="label" style="fill: #243447; font-size: 23px; font-weight: 500">Zähler</text><line x1="318" y1="242" x2="365" y2="242" stroke="#cbd5df" stroke-width="2"></line><text x="272" y="300" class="label" text-anchor="middle" style="fill: #243447; font-size: 22px; font-weight: 500">Lichtquelle am unteren Spiegel</text></g></svg>