<svg xmlns="http://www.w3.org/2000/svg" viewBox="0 0 560 590" font-family="sans-serif" fill="#243447"><rect width="560" height="660" fill="white" />
<text x="55" y="229" text-anchor="middle" font-size="25" fill="#243447" transform="rotate(-90 55 229)">Abstand zum Myon in km</text>
<rect x="242" y="48" width="156" height="30.0" fill="#eef2fa" />
<line x1="154" y1="78.0" x2="442" y2="78.0" stroke="#dce5ea" stroke-width="2" />
<text x="131" y="87.0" text-anchor="end" font-size="27" fill="#607286">0,0</text>
<line x1="154" y1="121.14285714285714" x2="442" y2="121.14285714285714" stroke="#dce5ea" stroke-width="2" />
<text x="131" y="130.14285714285714" text-anchor="end" font-size="27" fill="#607286">0,1</text>
<line x1="154" y1="164.28571428571428" x2="442" y2="164.28571428571428" stroke="#dce5ea" stroke-width="2" />
<text x="131" y="173.28571428571428" text-anchor="end" font-size="27" fill="#607286">0,2</text>
<line x1="154" y1="207.42857142857142" x2="442" y2="207.42857142857142" stroke="#dce5ea" stroke-width="2" />
<text x="131" y="216.42857142857142" text-anchor="end" font-size="27" fill="#607286">0,3</text>
<line x1="154" y1="250.57142857142858" x2="442" y2="250.57142857142858" stroke="#dce5ea" stroke-width="2" />
<text x="131" y="259.57142857142856" text-anchor="end" font-size="27" fill="#607286">0,4</text>
<line x1="154" y1="293.7142857142857" x2="442" y2="293.7142857142857" stroke="#dce5ea" stroke-width="2" />
<text x="131" y="302.7142857142857" text-anchor="end" font-size="27" fill="#607286">0,5</text>
<line x1="154" y1="336.85714285714283" x2="442" y2="336.85714285714283" stroke="#dce5ea" stroke-width="2" />
<text x="131" y="345.85714285714283" text-anchor="end" font-size="27" fill="#607286">0,6</text>
<line x1="154" y1="380.0" x2="442" y2="380.0" stroke="#dce5ea" stroke-width="2" />
<text x="131" y="389.0" text-anchor="end" font-size="27" fill="#607286">0,7</text>
<line x1="154" y1="78" x2="154" y2="380" stroke="#a6b3c4" stroke-width="2" />
<line x1="207" y1="78.0" x2="442" y2="78.0" stroke="#243447" stroke-width="3" />
<line x1="213" y1="80.0" x2="205" y2="90.0" stroke="#9aa8b8" stroke-width="1.5" />
<line x1="234" y1="80.0" x2="226" y2="90.0" stroke="#9aa8b8" stroke-width="1.5" />
<line x1="255" y1="80.0" x2="247" y2="90.0" stroke="#9aa8b8" stroke-width="1.5" />
<line x1="276" y1="80.0" x2="268" y2="90.0" stroke="#9aa8b8" stroke-width="1.5" />
<line x1="297" y1="80.0" x2="289" y2="90.0" stroke="#9aa8b8" stroke-width="1.5" />
<line x1="318" y1="80.0" x2="310" y2="90.0" stroke="#9aa8b8" stroke-width="1.5" />
<line x1="339" y1="80.0" x2="331" y2="90.0" stroke="#9aa8b8" stroke-width="1.5" />
<line x1="360" y1="80.0" x2="352" y2="90.0" stroke="#9aa8b8" stroke-width="1.5" />
<line x1="381" y1="80.0" x2="373" y2="90.0" stroke="#9aa8b8" stroke-width="1.5" />
<line x1="402" y1="80.0" x2="394" y2="90.0" stroke="#9aa8b8" stroke-width="1.5" />
<line x1="423" y1="80.0" x2="415" y2="90.0" stroke="#9aa8b8" stroke-width="1.5" />
<rect x="292" y="78.0" width="56" height="15" rx="3" fill="#0b796f" stroke="#243447" />
<circle cx="320" cy="78" r="14" fill="none" stroke="#0b796f" stroke-width="3" />
<text x="280" y="437" text-anchor="middle" font-size="27" fill="#243447">Erdboden mit Detektor</text>
<text x="280" y="495" text-anchor="middle" font-size="23" fill="#243447">Eigenlebensdauer im Beispiel: 2,2 µs</text>
<text x="280" y="529" text-anchor="middle" font-size="23" fill="#243447">Zeit seit Entstehung: 2,11 µs</text>
<text x="280" y="563" text-anchor="middle" font-size="23" fill="#243447">Boden erreicht das Myon</text>
<text x="280" y="30" text-anchor="middle" font-size="23" font-weight="600" fill="#243447">Myonsystem</text></svg>